<svg width="20" height="22" viewBox="0 0 20 22" fill="none" xmlns="http://www.w3.org/2000/svg">
<path d="M9.63584 1.5625C8.61657 1.5625 7.7474 2.21357 7.42529 3.12493C7.28149 3.53174 6.83515 3.74497 6.42834 3.60118C6.02153 3.45739 5.80831 3.01104 5.9521 2.60424C6.48796 1.08811 7.93386 0 9.63584 0C11.3379 0 12.7838 1.08811 13.3197 2.60424C13.4634 3.01104 13.2502 3.45739 12.8434 3.60118C12.4366 3.74497 11.9902 3.53174 11.8465 3.12493C11.5244 2.21357 10.6551 1.5625 9.63584 1.5625Z" fill="white"/>
<path d="M0 4.94791C0 4.51644 0.349781 4.16666 0.78125 4.16666H18.4897C18.9211 4.16666 19.2709 4.51644 19.2709 4.94791C19.2709 5.37938 18.9211 5.72916 18.4897 5.72916H0.78125C0.349781 5.72916 0 5.37938 0 4.94791Z" fill="white"/>
<path d="M3.29712 7.50009C3.26842 7.06957 2.89615 6.74384 2.46564 6.77254C2.03512 6.80124 1.70938 7.17351 1.73809 7.60403L2.22085 14.8454C2.3099 16.1816 2.38184 17.2609 2.55056 18.1079C2.72597 18.9884 3.02433 19.7239 3.64058 20.3004C4.25682 20.877 5.01052 21.1257 5.90078 21.2422C6.75707 21.3541 7.83881 21.3541 9.17797 21.3541H10.0934C11.4326 21.3541 12.5142 21.3541 13.3706 21.2422C14.2608 21.1257 15.0145 20.877 15.6308 20.3004C16.247 19.7239 16.5454 18.9884 16.7208 18.1079C16.8894 17.2609 16.9614 16.1816 17.0505 14.8454L17.5333 7.60403C17.5619 7.17351 17.2362 6.80124 16.8057 6.77254C16.3752 6.74384 16.0029 7.06957 15.9742 7.50009L15.4951 14.6866C15.4015 16.0907 15.3347 17.0676 15.1884 17.8026C15.0463 18.5156 14.8481 18.893 14.5633 19.1595C14.2785 19.4258 13.8887 19.5986 13.1679 19.6929C12.4247 19.7901 11.4456 19.7916 10.0385 19.7916H9.23287C7.82579 19.7916 6.84657 19.7901 6.10344 19.6929C5.38261 19.5986 4.99286 19.4258 4.70805 19.1595C4.42325 18.893 4.22498 18.5156 4.08295 17.8026C3.93653 17.0676 3.86983 16.0907 3.77623 14.6866L3.29712 7.50009Z" fill="white"/>
<path d="M6.95357 9.37884C7.38291 9.33592 7.7657 9.64915 7.80872 10.0785L8.32955 15.2869C8.37247 15.7161 8.05924 16.099 7.62986 16.142C7.20055 16.1849 6.8177 15.8717 6.77477 15.4423L6.25394 10.2339C6.211 9.80467 6.52424 9.42176 6.95357 9.37884Z" fill="white"/>
<path d="M15.0171 10.2339C15.06 9.80467 14.7467 9.42176 14.3174 9.37884C13.8881 9.33592 13.5052 9.64915 13.4623 10.0785L12.9414 15.2869C12.8985 15.7161 13.2117 16.099 13.6411 16.142C14.0704 16.1849 14.4532 15.8717 14.4962 15.4423L15.0171 10.2339Z" fill="white"/>
</svg>
