<svg width="35" height="35" viewBox="0 0 35 35" fill="none" xmlns="http://www.w3.org/2000/svg">
<g clip-path="url(#clip0_75_2126)">
<rect width="35" height="35" rx="5" fill="#F8894B"/>
<path d="M17.6358 7.5625C16.6166 7.5625 15.7474 8.21357 15.4253 9.12493C15.2815 9.53174 14.8352 9.74497 14.4283 9.60118C14.0215 9.45739 13.8083 9.01104 13.9521 8.60424C14.488 7.08811 15.9339 6 17.6358 6C19.3379 6 20.7838 7.08811 21.3197 8.60424C21.4634 9.01104 21.2502 9.45739 20.8434 9.60118C20.4366 9.74497 19.9902 9.53174 19.8465 9.12493C19.5244 8.21357 18.6551 7.5625 17.6358 7.5625Z" fill="white"/>
<path d="M8 10.9479C8 10.5164 8.34978 10.1666 8.78125 10.1666H26.4897C26.9211 10.1666 27.2709 10.5164 27.2709 10.9479C27.2709 11.3793 26.9211 11.7291 26.4897 11.7291H8.78125C8.34978 11.7291 8 11.3793 8 10.9479Z" fill="white"/>
<path d="M11.2971 13.5001C11.2684 13.0695 10.8962 12.7438 10.4656 12.7725C10.0351 12.8012 9.70938 13.1735 9.73809 13.604L10.2208 20.8454C10.3099 22.1816 10.3818 23.2609 10.5506 24.1079C10.726 24.9884 11.0243 25.7239 11.6406 26.3004C12.2568 26.8769 13.0105 27.1257 13.9008 27.2421C14.7571 27.3541 15.8388 27.3541 17.178 27.3541H18.0934C19.4326 27.3541 20.5142 27.3541 21.3706 27.2421C22.2608 27.1257 23.0145 26.8769 23.6308 26.3004C24.247 25.7239 24.5454 24.9884 24.7208 24.1079C24.8894 23.2609 24.9614 22.1816 25.0505 20.8454L25.5333 13.604C25.5619 13.1735 25.2362 12.8012 24.8057 12.7725C24.3752 12.7438 24.0029 13.0695 23.9742 13.5001L23.4951 20.6866C23.4015 22.0907 23.3347 23.0676 23.1884 23.8026C23.0463 24.5156 22.8481 24.893 22.5633 25.1594C22.2785 25.4258 21.8887 25.5986 21.1679 25.6929C20.4247 25.7901 19.4456 25.7916 18.0385 25.7916H17.2329C15.8258 25.7916 14.8466 25.7901 14.1034 25.6929C13.3826 25.5986 12.9929 25.4258 12.708 25.1594C12.4232 24.893 12.225 24.5156 12.083 23.8026C11.9365 23.0676 11.8698 22.0907 11.7762 20.6866L11.2971 13.5001Z" fill="white"/>
<path d="M14.9536 15.3788C15.3829 15.3359 15.7657 15.6491 15.8087 16.0785L16.3296 21.2868C16.3725 21.7161 16.0592 22.099 15.6299 22.1419C15.2006 22.1849 14.8177 21.8716 14.7748 21.4422L14.2539 16.2339C14.211 15.8046 14.5242 15.4217 14.9536 15.3788Z" fill="white"/>
<path d="M21.0171 16.2339C21.06 15.8046 20.7467 15.4217 20.3174 15.3788C19.8881 15.3359 19.5052 15.6491 19.4623 16.0785L18.9414 21.2868C18.8985 21.7161 19.2117 22.099 19.6411 22.1419C20.0704 22.1849 20.4532 21.8716 20.4962 21.4422L21.0171 16.2339Z" fill="white"/>
</g>
<defs>
<clipPath id="clip0_75_2126">
<rect width="35" height="35" rx="5" fill="white"/>
</clipPath>
</defs>
</svg>
