<svg width="51" height="50" viewBox="0 0 51 50" fill="none" xmlns="http://www.w3.org/2000/svg">
<path d="M17.1598 27.0834H33.8265C37.3904 27.0834 40.3902 29.7509 40.8067 33.2907L42.1598 44.7917M17.1598 27.0834C13.5958 27.0834 10.596 29.7509 10.1796 33.2907L8.82648 44.7917M17.1598 27.0834V37.5C17.1598 41.4284 17.1598 43.3925 18.3802 44.613C19.6006 45.8334 21.5648 45.8334 25.4931 45.8334C29.4215 45.8334 31.3856 45.8334 32.6061 44.613C33.8265 43.3925 33.8265 41.4284 33.8265 37.5V35.4167" stroke="white" stroke-width="3" stroke-linecap="round"/>
<path d="M25.4931 20.8333C30.0955 20.8333 33.8265 17.1023 33.8265 12.5C33.8265 7.89759 30.0955 4.16663 25.4931 4.16663C20.8908 4.16663 17.1598 7.89759 17.1598 12.5C17.1598 17.1023 20.8908 20.8333 25.4931 20.8333Z" stroke="white" stroke-width="3"/>
</svg>
