<svg width="30" height="30" viewBox="0 0 30 30" fill="none" xmlns="http://www.w3.org/2000/svg">
<g clip-path="url(#clip0_50_3209)">
<path fill-rule="evenodd" clip-rule="evenodd" d="M23.1263 3.47625L22.0031 6.9075L13.8694 15.0431L14.9569 16.1288L23.0888 7.995L26.5988 6.80063L30.0338 1.05L28.9481 -0.0337448L23.1263 3.47625Z" fill="white"/>
<path fill-rule="evenodd" clip-rule="evenodd" d="M9.37312 14.5219L11.3512 16.4831C10.62 16.1887 9.81562 16.2844 9.28687 16.8037L0.526873 25.4569C-0.206252 26.1844 -0.114377 27.4575 0.742498 28.305L1.71 29.2631C2.56687 30.1069 3.85687 30.2006 4.59187 29.4712L13.35 20.82C13.875 20.3025 13.9687 19.5056 13.6744 18.7856L15.465 20.5612L16.815 19.2206L10.7231 13.1831L9.37312 14.5219Z" fill="white"/>
</g>
<defs>
<clipPath id="clip0_50_3209">
<rect width="30" height="30" fill="white" transform="matrix(0 -1 1 0 0 30)"/>
</clipPath>
</defs>
</svg>
