<svg width="31" height="30" viewBox="0 0 31 30" fill="none" xmlns="http://www.w3.org/2000/svg">
<path d="M26.4354 2.10938H3.93542C2.5123 2.11125 1.35917 3.26437 1.3573 4.6875V19.6875C1.35917 21.1106 2.5123 22.2638 3.93542 22.2656H12.191L10.1595 26.4844H5.80949C5.42136 26.4844 5.10636 26.7994 5.10636 27.1875C5.10636 27.5756 5.42136 27.8906 5.80949 27.8906H24.5595C24.9476 27.8906 25.2626 27.5756 25.2626 27.1875C25.2626 26.7994 24.9476 26.4844 24.5595 26.4844H20.306L18.1967 22.2656H26.4345C27.8576 22.2638 29.0107 21.1106 29.0126 19.6875V4.6875C29.0107 3.26437 27.8585 2.11125 26.4354 2.10938ZM3.93542 3.51562H26.4354C27.0823 3.51656 27.6064 4.04062 27.6073 4.6875V15.2344H2.76355V4.6875C2.76449 4.04062 3.28855 3.51656 3.93542 3.51562ZM18.7357 26.4844H11.7214L13.752 22.2656H16.6254L18.7357 26.4844ZM26.4354 20.8594H3.93542C3.28855 20.8584 2.76449 20.3344 2.76355 19.6875V16.6406H27.6073V19.6875C27.6064 20.3344 27.0823 20.8584 26.4354 20.8594Z" fill="white"/>
</svg>
