<svg width="51" height="50" viewBox="0 0 51 50" fill="none" xmlns="http://www.w3.org/2000/svg">
<path d="M16.1181 37.5C17.844 37.5 19.2431 38.8992 19.2431 40.625C19.2431 42.3508 17.844 43.75 16.1181 43.75C14.3922 43.75 12.9931 42.3508 12.9931 40.625C12.9931 38.8992 14.3922 37.5 16.1181 37.5Z" stroke="white" stroke-width="3"/>
<path d="M34.8681 37.5002C36.594 37.5002 37.9931 38.8992 37.9931 40.6252C37.9931 42.3511 36.594 43.7502 34.8681 43.7502C33.1423 43.7502 31.7431 42.3511 31.7431 40.6252C31.7431 38.8992 33.1423 37.5002 34.8681 37.5002Z" stroke="white" stroke-width="3"/>
<path d="M4.65979 6.25L5.20398 6.44133C7.91562 7.39469 9.27146 7.87137 10.047 9.00621C10.8225 10.1411 10.8225 11.6485 10.8225 14.6632V20.3333C10.8225 26.4617 10.9542 28.484 12.7592 30.3879C14.5642 32.2917 17.4693 32.2917 23.2796 32.2917H25.4931M34.3273 32.2917C37.5794 32.2917 39.2054 32.2917 40.3548 31.355C41.5042 30.4183 41.8325 28.8258 42.489 25.6406L43.5302 20.5891C44.2533 16.966 44.6148 15.1545 43.69 13.9522C42.7652 12.75 39.6052 12.75 36.0948 12.75H23.4587M10.8225 12.75H15.0765" stroke="white" stroke-width="3" stroke-linecap="round"/>
</svg>
