<svg width="31" height="30" viewBox="0 0 31 30" fill="none" xmlns="http://www.w3.org/2000/svg">
<g clip-path="url(#clip0_50_3241)">
<path d="M14.2812 17.8125H16.1562" stroke="white" stroke-width="2" stroke-miterlimit="10" stroke-linecap="round" stroke-linejoin="round"/>
<path d="M6.78125 17.8125H8.65625" stroke="white" stroke-width="2" stroke-miterlimit="10" stroke-linecap="round" stroke-linejoin="round"/>
<path d="M10.5312 17.8125H12.4062" stroke="white" stroke-width="2" stroke-miterlimit="10" stroke-linecap="round" stroke-linejoin="round"/>
<path d="M18.0312 17.8125H19.9062" stroke="white" stroke-width="2" stroke-miterlimit="10" stroke-linecap="round" stroke-linejoin="round"/>
<path d="M21.7812 17.8125H23.6562" stroke="white" stroke-width="2" stroke-miterlimit="10" stroke-linecap="round" stroke-linejoin="round"/>
<path d="M22.7188 23.4375H23.6562" stroke="white" stroke-width="2" stroke-miterlimit="10" stroke-linecap="round" stroke-linejoin="round"/>
<path d="M6.78125 23.4375H7.71875" stroke="white" stroke-width="2" stroke-miterlimit="10" stroke-linecap="round" stroke-linejoin="round"/>
<path d="M11.4688 23.4375H18.9688" stroke="white" stroke-width="2" stroke-miterlimit="10" stroke-linecap="round" stroke-linejoin="round"/>
<path d="M25.5312 14.0625H27.4062V27.1875H3.03125V14.0625H20.8438C21.875 14.0625 22.7188 13.2188 22.7188 12.1875C22.7188 11.1562 21.875 10.3125 20.8438 10.3125H7.71875C6.6875 10.3125 5.84375 9.46875 5.84375 8.4375C5.84375 7.40625 6.6875 6.5625 7.71875 6.5625H13.3438C14.375 6.5625 15.2188 5.71875 15.2188 4.6875V1.875" stroke="white" stroke-width="2" stroke-miterlimit="10" stroke-linecap="round" stroke-linejoin="round"/>
</g>
<defs>
<clipPath id="clip0_50_3241">
<rect width="30" height="30" fill="white" transform="translate(0.21875)"/>
</clipPath>
</defs>
</svg>
