<svg width="50" height="50" viewBox="0 0 50 50" fill="none" xmlns="http://www.w3.org/2000/svg">
<g clip-path="url(#clip0_65_55)">
<path fill-rule="evenodd" clip-rule="evenodd" d="M50 9.09934C48.1628 9.93599 46.1848 10.5018 44.1099 10.7546C46.2288 9.45446 47.8547 7.39295 48.6206 4.93719C46.6367 6.14099 44.4445 7.01675 42.1025 7.48623C40.236 5.44278 37.5682 4.16675 34.6158 4.16675C28.9546 4.16675 24.3617 8.87663 24.3617 14.685C24.3617 15.5096 24.4497 16.3101 24.6258 17.0806C16.1002 16.6412 8.54317 12.4579 3.48066 6.08681C2.59729 7.64574 2.09249 9.45446 2.09249 11.3805C2.09249 15.0281 3.90327 18.2483 6.65611 20.1352C4.97741 20.0841 3.39261 19.6055 2.00739 18.8231V18.9525C2.00739 24.0506 5.54381 28.303 10.2395 29.2661C9.37958 29.5128 8.47274 29.6362 7.53654 29.6362C6.87621 29.6362 6.23055 29.573 5.60544 29.4496C6.91142 33.6268 10.6973 36.6695 15.1875 36.7507C11.6775 39.5736 7.25185 41.256 2.44761 41.256C1.61999 41.256 0.801197 41.2078 0 41.1115C4.54012 44.0909 9.93426 45.8334 15.7246 45.8334C34.5953 45.8334 44.9111 29.8078 44.9111 15.9068C44.9111 15.4494 44.9023 14.992 44.8846 14.5435C46.8891 13.0598 48.6295 11.209 50 9.09934Z" fill="#00AAEC"/>
</g>
<defs>
<clipPath id="clip0_65_55">
<rect width="50" height="50" fill="white"/>
</clipPath>
</defs>
</svg>
