<svg width="50" height="50" viewBox="0 0 50 50" fill="none" xmlns="http://www.w3.org/2000/svg">
<path d="M45.975 14.4781C45.7247 13.5547 45.237 12.7129 44.5605 12.0364C43.884 11.3599 43.0422 10.8722 42.1187 10.6219C38.6937 9.71875 25 9.71875 25 9.71875C25 9.71875 11.3062 9.71875 7.88125 10.6219C6.00625 11.125 4.53125 12.6031 4.025 14.4781C3.125 17.9 3.125 25 3.125 25C3.125 25 3.125 32.1344 4.025 35.5219C4.53125 37.3969 6.00938 38.875 7.88125 39.3781C11.3062 40.2812 25 40.2813 25 40.2813C25 40.2813 38.6937 40.2812 42.1187 39.3781C43.0422 39.1278 43.884 38.6402 44.5605 37.9636C45.237 37.2871 45.7247 36.4453 45.975 35.5219C46.875 32.1 46.875 25 46.875 25C46.875 25 46.875 17.9 45.975 14.4781Z" fill="#FF0000"/>
<path d="M20.6031 31.5938L31.9906 25.0376L20.6031 18.4438V31.5938Z" fill="white"/>
</svg>
