<svg width="40" height="40" viewBox="0 0 40 40" fill="none" xmlns="http://www.w3.org/2000/svg">
<path d="M20 6.66659C27.3517 6.66659 33.3333 12.6483 33.3333 19.9999C33.3333 27.3516 27.3517 33.3333 20 33.3333C12.6483 33.3333 6.66666 27.3516 6.66666 19.9999C6.66666 12.6483 12.6483 6.66659 20 6.66659ZM20 3.33325C10.795 3.33325 3.33333 10.7949 3.33333 19.9999C3.33333 29.2049 10.795 36.6666 20 36.6666C29.205 36.6666 36.6667 29.2049 36.6667 19.9999C36.6667 10.7949 29.205 3.33325 20 3.33325ZM21.6667 24.9999H18.3333V28.3333H21.6667V24.9999ZM18.3333 21.6666H21.6667L22.5 11.6666H17.5L18.3333 21.6666Z" fill="#699BF7"/>
</svg>
