<svg width="34" height="34" viewBox="0 0 34 34" fill="none" xmlns="http://www.w3.org/2000/svg">
<path d="M10.625 25.5C11.7986 25.5 12.75 26.4514 12.75 27.625C12.75 28.7986 11.7986 29.75 10.625 29.75C9.45139 29.75 8.5 28.7986 8.5 27.625C8.5 26.4514 9.45139 25.5 10.625 25.5Z" stroke="white" stroke-width="3"/>
<path d="M23.375 25.5001C24.5486 25.5001 25.5 26.4514 25.5 27.6251C25.5 28.7987 24.5486 29.7501 23.375 29.7501C22.2014 29.7501 21.25 28.7987 21.25 27.6251C21.25 26.4514 22.2014 25.5001 23.375 25.5001Z" stroke="white" stroke-width="3"/>
<path d="M2.83337 4.25L3.20342 4.38011C5.04734 5.02839 5.96931 5.35253 6.49665 6.12422C7.02399 6.89592 7.02399 7.92095 7.02399 9.97101V13.8267C7.02399 17.9939 7.11358 19.3691 8.34098 20.6638C9.56838 21.9583 11.5438 21.9583 15.4948 21.9583H17M23.0073 21.9583C25.2187 21.9583 26.3244 21.9583 27.106 21.3214C27.8875 20.6845 28.1108 19.6016 28.5572 17.4356L29.2653 14.0006C29.757 11.5369 30.0028 10.3051 29.3739 9.48753C28.7451 8.67 26.5963 8.67 24.2092 8.67H15.6167M7.02399 8.67H9.91671" stroke="white" stroke-width="3" stroke-linecap="round"/>
</svg>
