<svg width="50" height="50" viewBox="0 0 50 50" fill="none" xmlns="http://www.w3.org/2000/svg">
<path d="M16.9375 32.9843H29.0391C29.3872 32.9843 29.721 32.8461 29.9671 32.5999C30.2133 32.3538 30.3516 32.0199 30.3516 31.6718L34.9219 14.9375C34.9219 14.7638 34.8874 14.5918 34.8205 14.4316C34.7536 14.2713 34.6555 14.1259 34.5319 14.0038C34.4084 13.8817 34.2619 13.7854 34.1008 13.7204C33.9398 13.6553 33.7674 13.6229 33.5938 13.625H13.7578C13.409 13.625 13.0743 13.763 12.827 14.0089C12.5796 14.2548 12.4396 14.5887 12.4375 14.9375L8.53125 31.6718C8.53125 32.0199 8.66953 32.3538 8.91567 32.5999C9.16181 32.8461 9.49565 32.9843 9.84375 32.9843H11.5469" stroke="#2F2E2E" stroke-width="3"/>
<path d="M32.5469 32.9844H29.8359L33.7422 19.4766H40.1641C40.2607 19.4763 40.3561 19.4972 40.4438 19.5377C40.5316 19.5782 40.6094 19.6373 40.6719 19.7109L43.4688 24.6328C43.569 24.7475 43.6245 24.8945 43.625 25.0469L41.0234 32.9844H38.2109" stroke="#2F2E2E" stroke-width="3"/>
<path d="M14.3047 36.7734C15.9054 36.7734 17.2031 35.4583 17.2031 33.8359C17.2031 32.2136 15.9054 30.8984 14.3047 30.8984C12.7039 30.8984 11.4062 32.2136 11.4062 33.8359C11.4062 35.4583 12.7039 36.7734 14.3047 36.7734Z" stroke="#2F2E2E" stroke-width="3"/>
<path d="M35.4297 36.7734C37.0304 36.7734 38.3281 35.4583 38.3281 33.8359C38.3281 32.2136 37.0304 30.8984 35.4297 30.8984C33.8289 30.8984 32.5312 32.2136 32.5312 33.8359C32.5312 35.4583 33.8289 36.7734 35.4297 36.7734Z" stroke="#2F2E2E" stroke-width="3"/>
<path d="M18.1641 17.4688H5.36719" stroke="#2F2E2E" stroke-width="3" stroke-linecap="round"/>
<path d="M15.6406 21.5625H6.60156" stroke="#2F2E2E" stroke-width="3" stroke-linecap="round"/>
<path d="M16.5547 26.1719H2.50781" stroke="#2F2E2E" stroke-width="3" stroke-linecap="round"/>
</svg>
