<svg width="30" height="30" viewBox="0 0 30 30" fill="none" xmlns="http://www.w3.org/2000/svg">
<path d="M14.1001 12.4488C14.1001 12.9458 14.503 13.3488 15.0001 13.3488C15.4971 13.3488 15.9001 12.9458 15.9001 12.4488H14.1001ZM15.9001 5.4C15.9001 4.90295 15.4971 4.5 15.0001 4.5C14.503 4.5 14.1001 4.90295 14.1001 5.4H15.9001ZM11.7731 8.59387C12.2254 8.38789 12.4251 7.85418 12.2192 7.40182C12.0132 6.94945 11.4795 6.74974 11.0271 6.95573L11.7731 8.59387ZM6.60007 15.192L5.69995 15.1873L5.70013 15.2024L6.60007 15.192ZM15.0001 23.4L15.0104 22.5C15.0036 22.5 14.9966 22.5 14.9898 22.5L15.0001 23.4ZM23.4001 15.192L24.3002 15.2024L24.3001 15.1873L23.4001 15.192ZM18.973 6.95573C18.5206 6.74974 17.987 6.94945 17.781 7.40182C17.575 7.85418 17.7747 8.38789 18.2271 8.59387L18.973 6.95573ZM15.9001 12.4488V5.4H14.1001V12.4488H15.9001ZM11.0271 6.95573C7.79819 8.42605 5.71854 11.6394 5.69995 15.1873L7.50006 15.1967C7.51498 12.3508 9.18302 9.77328 11.7731 8.59387L11.0271 6.95573ZM5.70013 15.2024C5.75929 20.2855 9.92741 24.3583 15.0104 24.3L14.9898 22.5C10.9007 22.547 7.5476 19.2706 7.50001 15.1816L5.70013 15.2024ZM14.9898 24.3C20.0727 24.3583 24.2411 20.2855 24.3002 15.2024L22.5002 15.1816C22.4525 19.2706 19.0995 22.547 15.0104 22.5L14.9898 24.3ZM24.3001 15.1873C24.2815 11.6394 22.202 8.42605 18.973 6.95573L18.2271 8.59387C20.8171 9.77328 22.4852 12.3508 22.5001 15.1967L24.3001 15.1873Z" fill="white"/>
</svg>
