<svg width="25" height="25" viewBox="0 0 25 25" fill="none" xmlns="http://www.w3.org/2000/svg">
<path d="M14.9584 4.24865L15.9238 3.28315C17.5235 1.68345 20.1171 1.68345 21.7168 3.28315C23.3165 4.88283 23.3165 7.47645 21.7168 9.07615L20.7513 10.0416M14.9584 4.24865C14.9584 4.24865 15.079 6.30033 16.8893 8.11065C18.6996 9.92095 20.7513 10.0416 20.7513 10.0416M14.9584 4.24865L6.08202 13.1249C5.48081 13.7262 5.18021 14.0267 4.92169 14.3582C4.61672 14.7492 4.35527 15.1722 4.14194 15.6198C3.96109 15.9993 3.82667 16.4026 3.55779 17.2092L2.41847 20.6272M20.7513 10.0416L11.875 18.918C11.2738 19.5191 10.9733 19.8197 10.6418 20.0783C10.2508 20.3833 9.82772 20.6447 9.38011 20.8581C9.00065 21.0389 8.59733 21.1733 7.79073 21.4421L4.37275 22.5815M2.41847 20.6272L2.13997 21.4628C2.00766 21.8596 2.11096 22.2972 2.40682 22.5932C2.70269 22.889 3.14031 22.9923 3.53725 22.86L4.37275 22.5815M2.41847 20.6272L4.37275 22.5815" stroke="white" stroke-width="2"/>
</svg>
